<svg width="1171" height="261" viewBox="0 0 1171 261" fill="none" xmlns="http://www.w3.org/2000/svg">
<path d="M1170.34 131.407L916.077 79.7694L916.077 187.03L1170.34 131.407Z" fill="#0092FF"/>
<path d="M938.766 118.373C876.54 103.875 814.033 90.623 751.262 78.6792C688.802 66.7821 626.108 56.162 563.228 46.8187C500.301 37.4754 437.203 29.3935 373.949 22.5885C310.741 15.799 247.378 10.2865 183.953 6.08204C152.746 4.01095 121.462 1.81528 90.1776 0.880958C64.1566 0.102356 34.2425 1.34813 12.5661 17.6989C3.25395 24.7063 -2.25859 35.311 0.918131 47.0056C4.03256 58.5134 13.4226 66.8913 24.2141 71.158C37.3725 76.3435 52.2128 76.2657 66.1342 77.1689C82.485 78.2278 98.8202 79.2867 115.171 80.33C180.231 84.5345 245.276 88.7389 310.337 92.9434C375.708 97.1634 441.096 101.383 506.468 105.619C571.839 109.855 637.227 114.059 702.599 118.295C767.659 122.499 832.704 126.704 897.764 130.908C913.788 131.936 929.812 132.979 945.835 134.007C945.835 131.406 945.835 128.821 945.835 126.221C839.898 123.62 733.961 121.004 628.024 118.404C522.725 115.819 417.426 113.218 312.143 110.633C272.076 109.652 219.411 105.105 192.798 142.027C191.49 143.833 192.611 146.231 194.2 147.352C231.542 173.607 280.796 172.875 324.492 174.604C376.861 176.675 429.292 177.235 481.692 176.285C586.82 174.386 691.823 166.444 796.047 152.476C824.56 148.66 852.932 143.911 881.429 139.924C910.02 135.922 939.404 133.867 967.574 141.528C967.574 139.021 967.574 136.53 967.574 134.023C896.036 143.662 824.513 153.301 753.068 163.594C717.657 168.686 682.277 173.934 646.944 179.431C616.158 184.212 585.122 188.572 554.959 196.623C523.519 205.016 493.153 217.941 468.316 239.384C466.307 241.112 467.164 244.211 469.11 245.504C494.119 262.119 525.076 262.493 553.838 258.693C586.649 254.364 619.225 246.734 651.475 239.399C719.837 223.827 787.405 204.782 853.835 182.39C891.099 169.823 927.99 156.197 964.491 141.544C969.085 139.706 967.076 132.169 962.42 134.038C898.761 159.576 833.872 182.016 768.002 201.154C702.91 220.074 636.744 236.363 569.986 248.322C537.877 254.068 501.64 257.774 473.034 238.761C473.299 240.801 473.564 242.841 473.828 244.881C519.361 205.561 582.273 197.37 639.532 188.416C709.902 177.407 780.397 167.363 850.954 157.661C890.508 152.226 930.061 146.885 969.63 141.559C973.601 141.03 973.056 134.988 969.63 134.054C920.842 120.786 869.049 134.365 820.324 141.357C768.157 148.847 715.788 154.796 663.279 159.234C559.46 168.017 455.126 170.882 350.98 167.768C323.744 166.958 296.29 166.413 269.164 163.641C244.124 161.087 219.006 155.341 198.108 140.656C198.575 142.432 199.042 144.207 199.51 145.982C222.51 114.075 269.756 117.407 304.419 118.264C356.43 119.541 408.425 120.818 460.436 122.11C563.804 124.648 667.172 127.202 770.54 129.74C828.967 131.173 887.393 132.621 945.82 134.054C950.865 134.178 950.787 126.595 945.82 126.268C818.269 118.03 690.717 109.792 563.181 101.555C436.268 93.3638 309.371 85.1573 182.458 76.9664C150.411 74.8019 118.363 72.7308 86.3157 70.6597C71.0706 69.6787 55.4362 69.5697 40.3156 67.265C27.5465 65.3185 13.843 59.9928 9.01564 46.8655C4.12599 33.598 14.715 24.3793 25.4754 18.8824C37.8241 12.5601 51.7456 9.89723 65.4958 8.9629C79.3238 8.02857 93.2142 8.71374 107.042 9.39891C122.677 10.1775 138.311 11.034 153.946 11.9683C278.024 19.4118 401.807 31.776 524.889 49.0766C648.33 66.424 771.069 88.7077 892.719 115.85C907.388 119.12 922.041 122.468 936.695 125.878C941.569 127.015 943.655 119.509 938.766 118.373Z" fill="#0092FF"/>
</svg>
