<svg width="877" height="196" viewBox="0 0 877 196" fill="none" xmlns="http://www.w3.org/2000/svg">
<path d="M876.724 98.5345L686.457 59.8939L686.457 140.158L876.724 98.5345Z" fill="#0092FF"/>
<path d="M703.435 88.7811C656.871 77.9324 610.096 68.0159 563.124 59.0782C516.385 50.1755 469.471 42.2283 422.417 35.2366C375.328 28.245 328.111 22.1972 280.777 17.1049C233.479 12.0243 186.063 7.89925 138.602 4.753C115.249 3.20319 91.839 1.56015 68.4286 0.860989C48.9568 0.278353 26.5718 1.21058 10.3511 13.446C3.38274 18.6898 -0.742343 26.6253 1.63483 35.3765C3.96538 43.9879 10.992 50.2571 19.0674 53.45C28.914 57.3304 40.0191 57.2721 50.4367 57.948C62.6721 58.7403 74.8958 59.5327 87.1313 60.3135C135.817 63.4597 184.49 66.6059 233.176 69.7522C282.094 72.9101 331.024 76.068 379.942 79.2375C428.861 82.4071 477.791 85.5533 526.709 88.7229C575.394 91.8691 624.068 95.0154 672.753 98.1616C684.744 98.9307 696.735 99.7114 708.725 100.48C708.725 98.5345 708.725 96.6001 708.725 94.6541C629.452 92.7081 550.178 90.7505 470.904 88.8045C392.108 86.8701 313.312 84.9241 234.527 82.9898C204.545 82.2556 165.135 78.853 145.22 106.482C144.242 107.833 145.081 109.628 146.269 110.467C174.213 130.114 211.07 129.566 243.768 130.859C282.956 132.409 322.191 132.829 361.403 132.118C440.071 130.696 518.645 124.753 596.637 114.301C617.974 111.446 639.205 107.892 660.53 104.909C681.924 101.914 703.913 100.376 724.993 106.109C724.993 104.233 724.993 102.368 724.993 100.492C671.46 107.705 617.939 114.918 564.476 122.621C537.977 126.431 511.502 130.358 485.062 134.472C462.024 138.049 438.801 141.312 416.229 147.336C392.702 153.617 369.979 163.289 351.393 179.335C349.89 180.628 350.531 182.947 351.987 183.914C370.702 196.348 393.867 196.628 415.39 193.784C439.942 190.545 464.32 184.835 488.453 179.347C539.609 167.694 590.17 153.442 639.881 136.686C667.766 127.282 695.371 117.086 722.686 106.12C726.123 104.745 724.62 99.1055 721.136 100.504C673.499 119.614 624.942 136.406 575.651 150.727C526.942 164.885 477.429 177.074 427.474 186.024C403.446 190.323 376.33 193.097 354.924 178.869C355.122 180.395 355.32 181.922 355.518 183.448C389.591 154.025 436.668 147.896 479.515 141.195C532.174 132.957 584.926 125.441 637.725 118.181C667.323 114.114 696.921 110.117 726.531 106.132C729.502 105.736 729.094 101.215 726.531 100.515C690.023 90.5873 651.266 100.749 614.804 105.981C575.767 111.586 536.579 116.037 497.286 119.358C419.597 125.93 341.523 128.074 263.589 125.744C243.209 125.138 222.665 124.73 202.366 122.656C183.628 120.745 164.832 116.445 149.194 105.456C149.544 106.785 149.893 108.113 150.243 109.442C167.454 85.565 202.808 88.0587 228.747 88.6996C267.668 89.6551 306.576 90.6107 345.497 91.5778C422.848 93.4772 500.199 95.3883 577.55 97.2877C621.271 98.3597 664.993 99.4434 708.714 100.515C712.489 100.609 712.431 94.9338 708.714 94.6891C613.266 88.5248 517.818 82.3605 422.382 76.1962C327.412 70.0668 232.453 63.9258 137.483 57.7965C113.502 56.1767 89.5201 54.6269 65.5387 53.0771C54.1306 52.343 42.4312 52.2614 31.1164 50.5368C21.5611 49.0802 11.3066 45.0949 7.69427 35.2717C4.0353 25.3435 11.9592 18.445 20.0113 14.3316C29.2519 9.60058 39.6695 7.60795 49.9589 6.90878C60.3066 6.20962 70.7008 6.72234 81.0485 7.23506C92.7479 7.81769 104.447 8.45859 116.147 9.15776C208.996 14.7278 301.624 23.9801 393.728 36.9263C486.099 49.9075 577.946 66.5826 668.978 86.8934C679.955 89.3404 690.92 91.8458 701.885 94.3977C705.533 95.2484 707.094 89.6318 703.435 88.7811Z" fill="#0092FF"/>
</svg>
