<svg width="737" height="703" viewBox="0 0 737 703" fill="none" xmlns="http://www.w3.org/2000/svg">
<path d="M789.218 480.509C796.705 477.827 778.956 408.433 770.852 379.849L771.606 379.768L692.305 158.389L459.069 324.209L88.1942 196.535L3.18514 226.987L114.236 544.654L617.108 369.361L637.317 415.059C640.739 424.614 677.28 522.713 691.635 515.465C700.617 512.248 673.268 412.961 669.845 403.407C673.268 412.961 709.808 511.061 724.164 503.813C733.146 500.595 705.797 401.309 702.374 391.754C705.797 401.309 742.337 499.408 756.693 492.16C765.003 489.183 742.212 403.971 736.048 383.68L736.208 383.661C743.672 403.756 775.939 487.213 789.218 480.509Z" fill="#0092FF"/>
</svg>
