<svg width="543" height="543" viewBox="0 0 543 543" fill="none" xmlns="http://www.w3.org/2000/svg">
<path d="M543 221.13C542.653 190.284 510.251 137.39 495.254 116.495C493.819 114.486 492.43 112.478 491.042 110.423C475.512 87.3117 405.687 -3.56288 270.503 0.108121C270.503 0.108121 99.6305 0.0388335 26.9815 151.704C-10.859 230.665 -8.77601 323.456 32.4666 400.686C67.3214 465.933 143.131 538.565 268.291 542.88C379.972 546.73 468.222 456.892 468.222 456.892L249.256 231.127L72.3668 325.396L313.365 148.564L375.461 208.524L375.507 208.501C389.555 225.078 456.835 302.515 468.222 290.417C475.72 284.23 419.48 204.022 405.363 185.228L405.502 185.113C420.939 203.26 486.297 278.111 497.522 266.198C504.905 260.103 450.47 182.204 435.311 161.863L435.38 161.794C451.188 181.834 510.066 257.355 521.106 245.603L524.068 243.71C528.743 239.854 509.557 206.631 491.088 177.54C511.802 203.121 535.987 229.719 543 221.13Z" fill="#0092FF"/>
</svg>
