<svg width="985" height="938" viewBox="0 0 985 938" fill="none" xmlns="http://www.w3.org/2000/svg">
<path d="M1053.83 641.636C1063.84 638.052 1040.12 545.317 1029.29 507.12L1030.3 507.01L924.325 211.173L612.642 432.765L117.025 262.148L3.4236 302.842L151.826 727.356L823.836 493.104L850.842 554.172C855.416 566.94 904.246 698.035 923.431 688.349C935.433 684.049 898.886 551.368 894.312 538.6C898.886 551.368 947.716 682.463 966.9 672.777C978.903 668.478 942.356 535.797 937.782 523.028C942.356 535.797 991.186 666.892 1010.37 657.206C1021.48 653.227 991.019 539.354 982.782 512.239L982.996 512.214C992.97 539.067 1036.09 650.595 1053.83 641.636Z" fill="#0092FF"/>
</svg>
