<svg width="726" height="726" viewBox="0 0 726 726" fill="none" xmlns="http://www.w3.org/2000/svg">
<path d="M726 295.655C725.536 254.413 682.214 183.692 662.163 155.756C660.244 153.07 658.388 150.385 656.531 147.637C635.768 116.737 542.41 -4.76363 361.666 0.14456C361.666 0.14456 133.208 0.051921 36.0747 202.831C-14.5186 308.404 -11.7337 432.466 43.4084 535.724C90.0099 622.96 191.369 720.07 358.709 725.839C508.028 730.987 626.02 610.872 626.02 610.872L333.26 309.021L96.7557 435.059L418.975 198.633L501.997 278.8L502.059 278.769C520.842 300.933 610.796 404.468 626.02 388.293C636.046 380.02 560.852 272.781 541.977 247.653L542.162 247.499C562.802 271.762 650.187 371.84 665.195 355.911C675.066 347.762 602.286 243.609 582.018 216.414L582.111 216.321C603.245 243.115 681.967 344.088 696.727 328.376L700.688 325.845C706.939 320.689 681.286 276.269 656.593 237.374C684.288 271.577 716.624 307.138 726 295.655Z" fill="#0092FF"/>
</svg>
