<svg width="353" height="233" viewBox="0 0 353 233" fill="none" xmlns="http://www.w3.org/2000/svg">
<path d="M226.203 137.76L133.247 102.821L132.224 233L-2.4013e-05 233L1.02339 110.42C1.02339 102.835 0.810304 95.2544 0.505126 87.6795C-0.199942 70.2155 4.90276 31.3394 60.3419 27.9732L180.745 27.9732C180.745 27.9732 177.756 -1.49165 197.393 0.0591288C197.393 0.0591288 217.03 -1.49165 215.722 27.9732L351.874 27.9732L353 176.09L187.248 177.525L186.122 193.206C186.122 196.4 185.712 229.34 180.745 228.716C177.775 228.716 175.367 196.403 175.367 193.206C175.367 196.4 174.957 229.34 169.99 228.716C167.02 228.716 164.612 196.403 164.612 193.206C164.612 196.4 164.202 229.34 159.235 228.716C156.488 228.716 154.221 201.052 153.897 194.388L153.85 194.399C153.771 201.145 153.076 229.293 148.48 228.714C146.004 228.714 143.921 206.273 143.295 196.945L143.066 197L143.066 123.005L228.813 147.378L330.275 65.1893C330.275 65.1893 273.332 67.9749 226.203 137.76Z" fill="black"/>
</svg>
