<svg width="673" height="995" viewBox="0 0 673 995" fill="none" xmlns="http://www.w3.org/2000/svg">
<path d="M0 539.358V116.48C0 116.48 32.1907 2.13169 166.955 0L784 1.72378C784 1.72378 784 24.1724 784 76.3857V978.487L596.554 979C596.554 979 577.379 923.273 714.275 867.428C714.275 867.428 590.014 885.811 558.428 979H358.349C358.349 979 2.43475 627.481 716.368 407.732C716.368 407.732 36.3889 517.238 200.527 979H67.711L296.046 287.581L76.1338 288.502C76.1338 288.502 222.374 443.984 128.197 539.358C128.197 539.358 62.8548 594.756 0 539.358Z" fill="#0092FF"/>
<path fill-rule="evenodd" clip-rule="evenodd" d="M808 879H584.058L583.999 879.192H558.855C551.322 879.192 473.56 880.165 475.039 891.895C475.039 898.91 551.309 904.598 558.855 904.598H576.101L576.101 904.599H558.855C551.322 904.599 473.56 905.573 475.039 917.302C475.039 924.288 550.658 929.957 558.755 930.005C550.658 930.013 473.566 931.029 475.039 942.709C475.039 949.707 550.934 955.384 558.798 955.412C550.938 955.416 473.564 956.414 475.039 968.115C475.039 974.193 532.297 979.275 552.5 980.524L548 995H808V879Z" fill="white"/>
</svg>
