<svg width="743" height="422" viewBox="0 0 743 422" fill="none" xmlns="http://www.w3.org/2000/svg">
<path d="M150.14 422L2.67072e-05 422L614.679 280.387L2.64003e-05 396.268L2.59905e-05 361.9L420.182 194.021L2.55565e-05 325.505L2.16749e-05 1.94108e-06L495.517 -3.9679e-06L495.517 0.0347839C501.14 0.0894837 528.182 0.681231 527.641 5.02739C527.641 7.62812 501.095 9.76144 495.517 10.0001L495.517 10.03C501.14 10.0847 528.182 10.6764 527.641 15.0226C527.641 17.6233 501.095 19.7566 495.517 19.9953L495.517 20.0252C501.14 20.0799 528.182 20.6716 527.641 25.0178C527.641 27.6185 501.095 29.7518 495.517 29.9905L495.517 30.0203C501.14 30.075 528.182 30.6668 527.641 35.0129C527.641 37.6186 501.001 39.7569 495.487 39.9906L202.403 101.961L202.403 121.866L532.902 138.654L251.64 112.05L605.841 74.4317L680.982 196.233C680.982 196.233 747.147 138.654 742.794 220.595C742.794 220.595 724.462 249.402 686.888 229.471L686.888 422L150.14 422Z" fill="black"/>
</svg>
