<svg width="503" height="744" viewBox="0 0 503 744" fill="none" xmlns="http://www.w3.org/2000/svg">
<path d="M0 403.279V87.0923C0 87.0923 24.102 1.59387 125.003 0L587 1.28887C587 1.28887 587 18.0737 587 57.1137V731.616L446.655 732C446.655 732 432.298 690.333 534.796 648.578C534.796 648.578 441.758 662.322 418.109 732H268.304C268.304 732 1.82296 469.169 536.362 304.862C536.362 304.862 27.2453 386.74 150.14 732H50.6969L221.657 215.025L57.0032 215.714C57.0032 215.714 166.497 331.968 95.9841 403.279C95.9841 403.279 47.0609 444.7 0 403.279Z" fill="#0092FF"/>
<path fill-rule="evenodd" clip-rule="evenodd" d="M431.026 676.012H418.293C412.646 676.012 355.572 671.755 355.572 666.506C354.466 657.728 412.655 657 418.293 657H436.905H465.756H604V744H410L413.456 732.823C398.268 731.88 355.572 728.082 355.572 723.542C354.47 714.8 412.187 714.042 418.222 714.036C412.186 714.002 355.572 709.759 355.572 704.53C354.47 695.788 412.187 695.03 418.222 695.024C412.186 694.99 355.572 690.747 355.572 685.519C354.466 676.741 412.655 676.013 418.293 676.013L431.026 676.012Z" fill="white"/>
</svg>
