<svg width="989" height="563" viewBox="0 0 989 563" fill="none" xmlns="http://www.w3.org/2000/svg">
<path d="M196.658 563L-4 563L817.503 374.071L-4 528.67L-4 482.819L557.562 258.847L-4 434.264L-4.00001 1.18414e-05L658.246 3.94421e-06L658.246 0.0463907C665.761 0.119389 701.902 0.908878 701.179 6.70716C701.179 10.1769 665.701 13.023 658.246 13.3414L658.246 13.3812C665.761 13.4542 701.902 14.2437 701.179 20.042C701.179 23.5117 665.701 26.3578 658.246 26.6762L658.246 26.716C665.761 26.789 701.902 27.5785 701.179 33.3768C701.179 36.8465 665.701 39.6925 658.246 40.011L658.246 40.0508C665.761 40.1238 701.902 40.9133 701.179 46.7116C701.179 50.1879 665.575 53.0406 658.206 53.3524L266.507 136.028L266.507 162.585L708.21 184.982L332.31 149.489L805.69 99.301L906.115 261.8C906.115 261.8 994.542 184.982 988.725 294.301C988.725 294.301 964.224 332.733 914.008 306.143L914.008 563L196.658 563Z" fill="#0092FF"/>
</svg>
