<svg width="631" height="487" viewBox="0 0 631 487" fill="none" xmlns="http://www.w3.org/2000/svg">
<path d="M618.895 70.5627C618.748 70.301 618.6 70.0556 618.437 69.7939C610.902 57.1499 598.748 47.8918 584.547 43.9497C504.22 21.6714 369.414 54.6473 369.414 54.6473C349.693 12.904 331.266 -0.508776 315.508 0.0146504C299.751 -0.508776 281.324 12.904 261.602 54.6473C261.602 54.6473 126.796 21.6714 46.4696 43.9497C32.2683 47.8918 20.1144 57.1499 12.5797 69.7939C12.4323 70.0393 12.2849 70.301 12.1211 70.5627C4.11134 84.2372 0.0982789 99.8909 0 115.725V116.722V377.307H2.32594H253.461H315.492H455.425V377.83H455.736C457.456 421.684 462.484 488.764 476.899 486.965C485.482 486.965 492.918 421.095 496.554 377.83H499.765C501.485 421.684 506.513 488.764 520.928 486.965C529.511 486.965 536.947 421.095 540.583 377.83H543.794C545.514 421.684 550.542 488.764 564.957 486.965C573.54 486.965 580.976 421.095 584.612 377.83H587.823C589.543 421.684 594.571 488.764 608.986 486.965C620.795 486.965 630.443 362.258 630.967 343.3H630.984V341.926V243.064L631 115.708C630.902 99.8909 626.889 84.2372 618.895 70.5627Z" fill="#0092FF"/>
</svg>
