<svg width="503" height="744" viewBox="0 0 503 744" fill="none" xmlns="http://www.w3.org/2000/svg">
<path d="M0 403.279V87.0923C0 87.0923 24.102 1.59387 125.003 0L587 1.28887C587 1.28887 587 18.0737 587 57.1137V731.616L446.655 732C446.655 732 432.298 690.333 534.796 648.578C534.796 648.578 441.758 662.322 418.109 732H268.304C268.304 732 1.82296 469.169 536.362 304.862C536.362 304.862 27.2453 386.74 150.14 732H50.6969L221.657 215.025L57.0032 215.714C57.0032 215.714 166.497 331.968 95.9841 403.279C95.9841 403.279 47.0609 444.7 0 403.279Z" fill="black"/>
<path fill-rule="evenodd" clip-rule="evenodd" d="M436.905 657H418.293C412.655 657 354.466 657.728 355.572 666.506C355.572 671.755 412.646 676.012 418.293 676.012H431.026L431.025 676.013H418.293C412.655 676.013 354.466 676.741 355.572 685.519C355.572 690.746 412.172 694.989 418.22 695.024C412.172 695.031 354.47 695.789 355.572 704.53C355.572 709.76 412.204 714.003 418.225 714.036C412.205 714.042 354.47 714.798 355.572 723.542C355.572 728.082 398.268 731.88 413.457 732.823L410 744H604V657H465.756H436.905Z" fill="white"/>
</svg>
