<svg width="844" height="652" viewBox="0 0 844 652" fill="none" xmlns="http://www.w3.org/2000/svg">
<path d="M827.809 94.4699C827.612 94.1196 827.415 93.7911 827.196 93.4407C817.118 76.5128 800.861 64.118 781.866 58.8403C674.424 29.0139 494.113 73.1622 494.113 73.1622C467.735 17.276 443.087 -0.681154 422.011 0.0196141C400.934 -0.681154 376.287 17.276 349.908 73.1622C349.908 73.1622 169.597 29.0139 62.1558 58.8403C43.1607 64.118 26.9042 76.5128 16.8261 93.4407C16.6289 93.7692 16.4317 94.1196 16.2127 94.4699C5.49916 112.778 0.131454 133.735 0 154.933V156.269V505.142H3.11108H339.02H421.989H609.158V505.842H609.574C611.874 564.554 618.6 654.361 637.88 651.953C649.361 651.953 659.307 563.765 664.171 505.842H668.465C670.766 564.554 677.492 654.361 696.772 651.953C708.252 651.953 718.199 563.765 723.062 505.842H727.357C729.657 564.554 736.383 654.361 755.663 651.953C767.143 651.953 777.09 563.765 781.954 505.842H786.248C788.548 564.554 795.274 654.361 814.554 651.953C830.351 651.953 843.255 484.995 843.956 459.614H843.978V457.774V325.417L844 154.911C843.869 133.735 838.501 112.778 827.809 94.4699Z" fill="#0092FF"/>
</svg>
