<svg width="62" height="52" viewBox="0 0 62 52" fill="none" xmlns="http://www.w3.org/2000/svg">
<path d="M55.3174 40.085C36.53 31.6512 38.1246 28.2426 40.2639 27.0323C40.9785 26.626 41.8063 26.4507 42.6298 26.4507H52.7293V18.2051H44.329C49.7012 7.6586 43.7147 3.12952 38.129 1.19642C33.5193 -0.398807 28.4565 -0.398807 23.8468 1.19642C18.2742 3.12952 12.2833 7.6586 17.6555 18.2051H9.25954V26.4507H19.3591C20.1869 26.4507 21.0104 26.6303 21.7249 27.0323C23.8642 28.2426 25.4589 31.6512 6.67584 40.085C3.05518 41.7101 0.458407 45.0503 0.0532064 48.9378C-0.0644325 50.0455 0.000922471 51.1147 0.371267 52H31.001H61.6306C62.001 51.1147 62.062 50.0455 61.9487 48.9378C61.5348 45.0503 58.938 41.7144 55.3174 40.085Z" fill="#0092FF"/>
</svg>
