<svg width="46" height="39" viewBox="0 0 46 39" fill="none" xmlns="http://www.w3.org/2000/svg">
<path d="M41.0419 30.0637C27.1029 23.7384 28.286 21.182 29.8732 20.2742C30.4034 19.9695 31.0176 19.838 31.6285 19.838H39.1217V13.6538H32.8893C36.8751 5.74395 32.4335 2.34714 28.2893 0.897317C24.8692 -0.299106 21.1129 -0.299106 17.6928 0.897317C13.5583 2.34714 9.11341 5.74395 13.0992 13.6538H6.86998V19.838H14.3632C14.9774 19.838 15.5883 19.9727 16.1185 20.2742C17.7057 21.182 18.8888 23.7384 4.95304 30.0637C2.26674 31.2826 0.340109 33.7877 0.0394758 36.7034C-0.0478047 37.5341 0.000684414 38.336 0.275456 39H23.0007H45.726C46.0007 38.336 46.046 37.5341 45.9619 36.7034C45.6548 33.7877 43.7282 31.2858 41.0419 30.0637Z" fill="#0092FF"/>
</svg>
